<?xml version="1.0" encoding="utf-8"?>
<!-- Generator: Adobe Illustrator 15.1.0, SVG Export Plug-In . SVG Version: 6.00 Build 0)  -->
<!DOCTYPE svg PUBLIC "-//W3C//DTD SVG 1.1//EN" "http://www.w3.org/Graphics/SVG/1.1/DTD/svg11.dtd">
<svg version="1.1" id="Layer_1" xmlns="http://www.w3.org/2000/svg" xmlns:xlink="http://www.w3.org/1999/xlink" x="0px" y="0px"
	 width="80px" height="80px" viewBox="0 0 500 500" enable-background="new 0 0 500 500" xml:space="preserve">
<path fill="#2C3249" d="M-508.3,96.5c-187.8,0-281.7,187.8-281.7,313c0,31.3,62.6,93.9,93.9,0c14-42,93.9-31.3,93.9,31.3
	c0,70,31.3,125.2,93.9,125.2c187.8,0,219.1-156.5,219.1-250.4C-289.2,221.7-320.5,96.5-508.3,96.5z M-664.8,323.4
	c-21.6,0-39.1-17.5-39.1-39.101c0-21.6,17.5-39.1,39.1-39.1c21.6,0,39.1,17.5,39.1,39.1C-625.7,305.9-643.2,323.4-664.8,323.4z
	 M-594.4,206.1c0-21.6,17.5-39.1,39.1-39.1c21.6,0,39.1,17.5,39.1,39.1s-17.5,39.1-39.1,39.1C-576.8,245.2-594.4,227.7-594.4,206.1z
	 M-492.7,479.9c-30.2,0-54.8-24.601-54.8-54.801c0-30.199,24.6-54.8,54.8-54.8s54.8,24.601,54.8,54.8
	C-437.9,455.4-462.5,479.9-492.7,479.9z M-398.8,386c-13,0-23.5-10.5-23.5-23.5c0-12.9,10.5-23.5,23.5-23.5s23.5,10.5,23.5,23.5
	S-385.8,386-398.8,386z M-430.1,292.1c-30.2,0-54.801-24.6-54.801-54.8c0-30.2,24.601-54.8,54.801-54.8
	c30.199,0,54.8,24.6,54.8,54.8C-375.3,267.6-399.9,292.1-430.1,292.1z"/>
<g>
	<path fill="#2C3249" d="M209.473,375.912l-34.06-34.06l-16.745,16.743l34.059,34.06l-30.667,30.669l-34.06-34.061l-16.745,16.745
		l34.06,34.059l-15.287,15.28l-77.941-77.941l106.874-106.865l-22.326-22.327L7.436,377.406L130.029,500l129.2-129.192
		l-22.326-22.325L209.473,375.912z M378.083,6.76l-136.2,136.208l22.318,22.326L378.083,51.397l77.956,77.956l-24.331,24.315
		l-34.044-34.06l-16.745,16.745l34.045,34.059l-26.952,26.967l-34.075-34.06l-16.743,16.745l34.074,34.059l-29.11,29.111
		l22.325,22.326l136.209-136.208L378.083,6.76z"/>
	<path fill="#2C3249" d="M133.914,19.881c-14.154-14.155-37.112-14.155-51.274,0L11.622,90.899
		c-14.163,14.154-14.163,37.112,0,51.267l28.585,28.585L162.5,48.467L133.914,19.881z M64.33,195.391l22.327,22.326l0.254-0.247
		l245.903,245.896l145.059,22.758l-22.759-145.058L209.21,95.17l0.254-0.262l-22.326-22.326L64.33,195.391z M109.245,195.128
		l27.653-27.646l211.228,211.235l-24.3,11.023l-1.188,18.78L109.245,195.128z M425.51,356.13l8.728,55.661l-30.715,30.714
		l-55.66-8.743l-2.929-2.929l1.634-25.396l35.062-15.942l12.982-32.07l28.571-3.624L425.51,356.13z M401.997,332.616l-24.131,3.053
		l-8.109,20.028l-210.533-210.54l27.653-27.661L401.997,332.616z"/>
</g>
</svg>
