<?xml version="1.0" encoding="utf-8"?>
<!-- Generator: Adobe Illustrator 17.0.0, SVG Export Plug-In . SVG Version: 6.00 Build 0)  -->
<!DOCTYPE svg PUBLIC "-//W3C//DTD SVG 1.1//EN" "http://www.w3.org/Graphics/SVG/1.1/DTD/svg11.dtd">
<svg version="1.1" id="Layer_1" xmlns="http://www.w3.org/2000/svg" xmlns:xlink="http://www.w3.org/1999/xlink" x="0px" y="0px"
	 width="704px" height="384.195px" viewBox="83.695 449.195 704 384.195" enable-background="new 83.695 449.195 704 384.195"
	 xml:space="preserve">
<g>
	<path fill="#2C3249" d="M656.029,736.535V476.092c0-10.97-8.958-20.04-20.04-20.04H235.401c-10.97,0-20.041,8.958-20.041,20.04
		v260.443l-50.059,60.009c0,16.61,13.407,29.989,30.019,29.989h480.778c16.583,0,29.991-13.379,29.991-29.989L656.029,736.535z
		 M475.775,816.584h-80.048c-2.892,0-5.102-2.211-5.102-4.989c0-2.778,2.21-4.989,5.102-4.989h80.048c2.778,0,4.99,2.211,4.99,4.989
		C480.765,814.375,478.553,816.584,475.775,816.584L475.775,816.584z M353.093,796.546l15.278-18.284h134.644l15.278,18.284H353.093
		z M627.796,701.104c0,9.609-7.852,17.489-17.375,17.489H260.97c-9.524,0-17.377-7.994-17.377-17.489V491.484
		c0-9.638,7.851-17.49,17.377-17.49H610.42c9.523,0,17.375,7.852,17.375,17.49L627.796,701.104L627.796,701.104z"/>
</g>
</svg>
