<?xml version="1.0" encoding="utf-8"?>
<!-- Generator: Adobe Illustrator 15.0.2, SVG Export Plug-In . SVG Version: 6.00 Build 0)  -->
<!DOCTYPE svg PUBLIC "-//W3C//DTD SVG 1.1//EN" "http://www.w3.org/Graphics/SVG/1.1/DTD/svg11.dtd">
<svg version="1.1" id="Layer_1" xmlns="http://www.w3.org/2000/svg" xmlns:xlink="http://www.w3.org/1999/xlink" x="0px" y="0px"
	 width="889.303px" height="1207.52px" viewBox="0 0 889.303 1207.52" enable-background="new 0 0 889.303 1207.52"
	 xml:space="preserve">
<g>
	<path fill="#2C3249" d="M545.365,297.743c-139.227,3.936-123.429,64.527-79.949,107.138
		c43.452,42.605-76.103,88.869-76.643,136.463c-0.533,47.635-111.231,119.611-219.053,20.432
		C61.9,462.564,53.09,188.71,279.469,88.734C473.574,2.999,689.092,137.319,725.111,192.66
		C761.074,248.018,684.571,293.864,545.365,297.743 M852.727,519.119c-21.68-24.948-47.912-50.836-58.418-82.195
		c-5.924-17.638,17.575-61.795,19.866-83.022c3.351-30.913-15.048-92.429-3.334-124.374c21.813-59.4-150.2-263.169-495.883-224.74
		C178.141,19.989-62.941,202.416,15.256,445.642c36.498,113.544,66.722,125.217,127.375,185.875
		c64.394,64.399,110.307,131.171,93.877,211.45c-12.082,59.117-85.821,161.651-128.766,218.801
		c-11.909,15.875,6.473,37.242,45.719,33.414c19.82-1.885,71.186,0.442,94.73,4.208c222.701,35.711,304.768,158.035,331.318,80.289
		c11.985-35.141-50.317-57.786-61.969-94.941c-26.5-84.583,62.174-169.542,84.06-193.268c21.886-23.72,44.701-22.415,65.411-26.36
		c25.143-4.722,94.093-4.531,117.946-14.843c23.159-10.003,48.739-1.068,31.894-91.411c-6.299-33.887,7.717-32.197,13.784-40.864
		c5.718-8.174,4.546-22.173,2.086-26.685c-1.192-2.157,9.571-14.775-0.868-26.961c-9.741-11.359-2.385-51.252-2.385-51.252
		s35.192-7.32,53.703-20.057C897.074,583.466,887.503,559.129,852.727,519.119"/>
	<path fill="#FFFFFF" d="M545.139,298.637c-139.227,3.926-123.434,64.527-79.955,107.128c43.459,42.61-76.102,88.868-76.636,136.462
		c-0.534,47.635-111.237,119.611-219.058,20.438C61.674,463.453,52.868,189.604,279.248,89.617
		c194.094-85.734,409.613,48.591,445.643,103.928C760.863,248.906,684.34,294.748,545.139,298.637"/>
</g>
</svg>
